<?xml version="1.0" encoding="UTF-8" standalone="no"?>
<!DOCTYPE svg PUBLIC "-//W3C//DTD SVG 1.1//EN" "http://www.w3.org/Graphics/SVG/1.1/DTD/svg11.dtd">
<svg width="100%" height="100%" viewBox="0 0 581 135" version="1.1" xmlns="http://www.w3.org/2000/svg" xmlns:xlink="http://www.w3.org/1999/xlink" xml:space="preserve" xmlns:serif="http://www.serif.com/" style="fill-rule:evenodd;clip-rule:evenodd;stroke-linejoin:round;stroke-miterlimit:2;">
    <g transform="matrix(1,0,0,1,-112.803,-209.662)">
        <g transform="matrix(1,0,0,1,-17.9881,40.0178)">
            <g transform="matrix(144,0,0,144,136.301,300.379)">
                <path d="M0.523,-0.196C0.516,-0.179 0.506,-0.158 0.493,-0.133C0.48,-0.108 0.466,-0.084 0.449,-0.061C0.432,-0.038 0.413,-0.018 0.393,-0.002C0.372,0.015 0.351,0.023 0.328,0.023C0.314,0.023 0.3,0.021 0.286,0.016C0.271,0.011 0.258,0.003 0.247,-0.008C0.235,-0.019 0.225,-0.033 0.217,-0.05C0.208,-0.067 0.203,-0.087 0.2,-0.11C0.198,-0.13 0.198,-0.15 0.199,-0.169C0.2,-0.188 0.202,-0.209 0.205,-0.23C0.208,-0.251 0.212,-0.275 0.217,-0.3C0.222,-0.325 0.229,-0.353 0.236,-0.384C0.239,-0.397 0.242,-0.41 0.243,-0.422C0.244,-0.433 0.244,-0.443 0.243,-0.45L0.209,-0.409C0.19,-0.388 0.172,-0.366 0.157,-0.344C0.142,-0.322 0.127,-0.298 0.112,-0.273C0.101,-0.23 0.093,-0.186 0.088,-0.141C0.083,-0.096 0.082,-0.051 0.085,-0.005C0.085,0.002 0.079,0.006 0.068,0.005C0.056,0.004 0.043,0.001 0.029,-0.005C0.014,-0.01 0.001,-0.017 -0.012,-0.026C-0.025,-0.035 -0.032,-0.043 -0.034,-0.052C-0.039,-0.093 -0.04,-0.134 -0.037,-0.175C-0.034,-0.216 -0.028,-0.258 -0.02,-0.299C-0.012,-0.34 -0.002,-0.382 0.009,-0.423C0.02,-0.464 0.032,-0.505 0.043,-0.546L0.062,-0.61C0.069,-0.635 0.075,-0.661 0.082,-0.688C0.089,-0.714 0.095,-0.74 0.101,-0.765C0.106,-0.79 0.111,-0.815 0.115,-0.839C0.118,-0.862 0.121,-0.884 0.123,-0.904C0.132,-0.909 0.144,-0.909 0.161,-0.904C0.177,-0.898 0.193,-0.889 0.208,-0.877C0.223,-0.865 0.237,-0.851 0.248,-0.836C0.259,-0.82 0.264,-0.805 0.263,-0.79C0.261,-0.78 0.258,-0.766 0.253,-0.747C0.248,-0.728 0.243,-0.708 0.236,-0.685C0.229,-0.662 0.222,-0.638 0.215,-0.613C0.207,-0.588 0.2,-0.564 0.193,-0.541L0.184,-0.515C0.201,-0.531 0.22,-0.544 0.24,-0.555C0.259,-0.566 0.28,-0.572 0.302,-0.574C0.311,-0.574 0.322,-0.57 0.334,-0.562C0.346,-0.553 0.357,-0.543 0.368,-0.531C0.378,-0.519 0.386,-0.506 0.393,-0.492C0.4,-0.478 0.402,-0.466 0.401,-0.455C0.394,-0.421 0.388,-0.389 0.381,-0.36C0.374,-0.33 0.368,-0.304 0.363,-0.283C0.358,-0.264 0.354,-0.247 0.351,-0.232C0.347,-0.216 0.344,-0.2 0.342,-0.185C0.339,-0.17 0.338,-0.154 0.337,-0.138C0.336,-0.122 0.337,-0.105 0.339,-0.086C0.339,-0.088 0.341,-0.09 0.344,-0.092L0.343,-0.092C0.36,-0.102 0.379,-0.119 0.4,-0.143C0.421,-0.167 0.441,-0.2 0.46,-0.241C0.465,-0.252 0.47,-0.262 0.475,-0.272C0.479,-0.282 0.483,-0.292 0.487,-0.302L0.497,-0.331C0.499,-0.334 0.504,-0.335 0.511,-0.334C0.518,-0.332 0.526,-0.329 0.534,-0.324C0.542,-0.319 0.549,-0.314 0.555,-0.308C0.56,-0.301 0.562,-0.296 0.56,-0.291L0.56,-0.293L0.523,-0.197L0.523,-0.196Z" style="fill-rule:nonzero;"/>
            </g>
            <g transform="matrix(144,0,0,144,209.885,300.379)">
                <path d="M0.347,-0.394C0.326,-0.334 0.296,-0.284 0.255,-0.244C0.214,-0.204 0.165,-0.174 0.109,-0.155C0.113,-0.137 0.12,-0.12 0.13,-0.104C0.139,-0.088 0.152,-0.078 0.168,-0.075L0.166,-0.076C0.18,-0.073 0.195,-0.074 0.212,-0.079C0.228,-0.084 0.245,-0.094 0.262,-0.108C0.279,-0.121 0.296,-0.139 0.313,-0.161C0.33,-0.183 0.345,-0.209 0.36,-0.239C0.367,-0.255 0.374,-0.272 0.381,-0.289C0.387,-0.306 0.393,-0.322 0.398,-0.337C0.403,-0.346 0.409,-0.35 0.419,-0.351C0.428,-0.352 0.436,-0.349 0.444,-0.345C0.451,-0.339 0.457,-0.333 0.462,-0.324C0.466,-0.315 0.466,-0.304 0.462,-0.293L0.449,-0.257C0.437,-0.227 0.422,-0.194 0.404,-0.158C0.386,-0.121 0.363,-0.086 0.335,-0.052C0.318,-0.033 0.301,-0.019 0.283,-0.009C0.265,0.002 0.248,0.01 0.231,0.015C0.214,0.02 0.199,0.023 0.186,0.024C0.172,0.025 0.161,0.025 0.153,0.025C0.101,0.025 0.058,0.01 0.026,-0.02C-0.008,-0.05 -0.029,-0.091 -0.039,-0.143C-0.048,-0.188 -0.048,-0.233 -0.039,-0.276C-0.029,-0.319 -0.012,-0.366 0.013,-0.417C0.022,-0.434 0.034,-0.452 0.05,-0.471C0.066,-0.49 0.085,-0.507 0.106,-0.523C0.127,-0.539 0.149,-0.552 0.174,-0.562C0.199,-0.572 0.224,-0.577 0.251,-0.576C0.279,-0.575 0.303,-0.566 0.323,-0.549C0.342,-0.531 0.354,-0.507 0.359,-0.477C0.361,-0.464 0.361,-0.45 0.36,-0.437C0.358,-0.423 0.354,-0.408 0.347,-0.393L0.347,-0.394ZM0.269,-0.476C0.247,-0.471 0.227,-0.461 0.209,-0.444C0.191,-0.427 0.175,-0.408 0.162,-0.385C0.148,-0.362 0.137,-0.338 0.128,-0.313C0.119,-0.287 0.113,-0.263 0.109,-0.24C0.15,-0.259 0.185,-0.286 0.215,-0.319C0.245,-0.352 0.267,-0.391 0.281,-0.437L0.281,-0.436C0.283,-0.441 0.284,-0.447 0.285,-0.452C0.285,-0.457 0.285,-0.462 0.284,-0.466C0.282,-0.475 0.277,-0.479 0.269,-0.476Z" style="fill-rule:nonzero;"/>
            </g>
            <g transform="matrix(144,0,0,144,269.357,300.379)">
                <path d="M0.193,-0.541L0.173,-0.476C0.166,-0.454 0.159,-0.43 0.152,-0.403C0.144,-0.376 0.136,-0.347 0.129,-0.318C0.121,-0.288 0.114,-0.259 0.109,-0.232C0.103,-0.204 0.099,-0.178 0.096,-0.155C0.093,-0.132 0.093,-0.113 0.096,-0.099L0.096,-0.091L0.103,-0.091C0.12,-0.098 0.136,-0.109 0.15,-0.124C0.163,-0.138 0.175,-0.156 0.187,-0.175C0.198,-0.194 0.208,-0.214 0.217,-0.236C0.226,-0.257 0.234,-0.278 0.242,-0.299L0.241,-0.299C0.243,-0.305 0.245,-0.311 0.249,-0.317C0.252,-0.322 0.254,-0.328 0.256,-0.333C0.257,-0.337 0.262,-0.338 0.269,-0.336C0.276,-0.334 0.284,-0.331 0.292,-0.326C0.3,-0.321 0.307,-0.316 0.313,-0.31C0.318,-0.303 0.32,-0.298 0.319,-0.293L0.301,-0.248C0.286,-0.21 0.269,-0.171 0.25,-0.133C0.231,-0.093 0.208,-0.059 0.183,-0.03C0.178,-0.025 0.172,-0.019 0.165,-0.013C0.158,-0.006 0.149,-0 0.14,0.005C0.131,0.01 0.12,0.015 0.109,0.019C0.098,0.022 0.085,0.024 0.072,0.024C0.042,0.023 0.019,0.01 0.002,-0.013C-0.016,-0.036 -0.027,-0.065 -0.032,-0.099C-0.033,-0.106 -0.034,-0.114 -0.035,-0.123C-0.035,-0.131 -0.035,-0.138 -0.035,-0.145C-0.036,-0.212 -0.029,-0.277 -0.014,-0.34C0.001,-0.403 0.018,-0.465 0.036,-0.526L0.062,-0.61C0.069,-0.635 0.075,-0.661 0.082,-0.688C0.089,-0.714 0.095,-0.74 0.101,-0.765C0.106,-0.79 0.111,-0.815 0.115,-0.839C0.118,-0.862 0.121,-0.884 0.123,-0.904C0.132,-0.909 0.144,-0.909 0.161,-0.904C0.177,-0.898 0.193,-0.889 0.208,-0.877C0.223,-0.865 0.237,-0.851 0.248,-0.836C0.259,-0.82 0.264,-0.805 0.263,-0.79C0.261,-0.78 0.258,-0.766 0.253,-0.747C0.247,-0.728 0.242,-0.707 0.236,-0.684C0.229,-0.661 0.222,-0.636 0.215,-0.612C0.207,-0.587 0.2,-0.563 0.193,-0.541Z" style="fill-rule:nonzero;"/>
            </g>
            <g transform="matrix(144,0,0,144,308.093,300.379)">
                <path d="M0.193,-0.541L0.173,-0.476C0.166,-0.454 0.159,-0.43 0.152,-0.403C0.144,-0.376 0.136,-0.347 0.129,-0.318C0.121,-0.288 0.114,-0.259 0.109,-0.232C0.103,-0.204 0.099,-0.178 0.096,-0.155C0.093,-0.132 0.093,-0.113 0.096,-0.099L0.096,-0.091L0.103,-0.091C0.12,-0.098 0.136,-0.109 0.15,-0.124C0.163,-0.138 0.175,-0.156 0.187,-0.175C0.198,-0.194 0.208,-0.214 0.217,-0.236C0.226,-0.257 0.234,-0.278 0.242,-0.299L0.241,-0.299C0.243,-0.305 0.245,-0.311 0.249,-0.317C0.252,-0.322 0.254,-0.328 0.256,-0.333C0.257,-0.337 0.262,-0.338 0.269,-0.336C0.276,-0.334 0.284,-0.331 0.292,-0.326C0.3,-0.321 0.307,-0.316 0.313,-0.31C0.318,-0.303 0.32,-0.298 0.319,-0.293L0.301,-0.248C0.286,-0.21 0.269,-0.171 0.25,-0.133C0.231,-0.093 0.208,-0.059 0.183,-0.03C0.178,-0.025 0.172,-0.019 0.165,-0.013C0.158,-0.006 0.149,-0 0.14,0.005C0.131,0.01 0.12,0.015 0.109,0.019C0.098,0.022 0.085,0.024 0.072,0.024C0.042,0.023 0.019,0.01 0.002,-0.013C-0.016,-0.036 -0.027,-0.065 -0.032,-0.099C-0.033,-0.106 -0.034,-0.114 -0.035,-0.123C-0.035,-0.131 -0.035,-0.138 -0.035,-0.145C-0.036,-0.212 -0.029,-0.277 -0.014,-0.34C0.001,-0.403 0.018,-0.465 0.036,-0.526L0.062,-0.61C0.069,-0.635 0.075,-0.661 0.082,-0.688C0.089,-0.714 0.095,-0.74 0.101,-0.765C0.106,-0.79 0.111,-0.815 0.115,-0.839C0.118,-0.862 0.121,-0.884 0.123,-0.904C0.132,-0.909 0.144,-0.909 0.161,-0.904C0.177,-0.898 0.193,-0.889 0.208,-0.877C0.223,-0.865 0.237,-0.851 0.248,-0.836C0.259,-0.82 0.264,-0.805 0.263,-0.79C0.261,-0.78 0.258,-0.766 0.253,-0.747C0.247,-0.728 0.242,-0.707 0.236,-0.684C0.229,-0.661 0.222,-0.636 0.215,-0.612C0.207,-0.587 0.2,-0.563 0.193,-0.541Z" style="fill-rule:nonzero;"/>
            </g>
            <g transform="matrix(144,0,0,144,346.829,300.379)">
                <path d="M0.245,-0.579C0.274,-0.574 0.298,-0.561 0.317,-0.54C0.335,-0.519 0.35,-0.496 0.36,-0.47C0.378,-0.452 0.392,-0.426 0.403,-0.391C0.404,-0.386 0.406,-0.38 0.407,-0.375C0.408,-0.37 0.409,-0.363 0.41,-0.356C0.415,-0.327 0.416,-0.298 0.413,-0.269C0.41,-0.239 0.405,-0.21 0.396,-0.183C0.387,-0.155 0.376,-0.129 0.363,-0.104C0.349,-0.079 0.333,-0.057 0.315,-0.039C0.297,-0.02 0.277,-0.006 0.256,0.005C0.235,0.016 0.212,0.021 0.188,0.021C0.145,0.02 0.104,0.006 0.067,-0.023C0.03,-0.051 0.001,-0.094 -0.019,-0.152C-0.024,-0.167 -0.028,-0.184 -0.031,-0.202C-0.036,-0.231 -0.036,-0.26 -0.032,-0.291C-0.028,-0.321 -0.021,-0.35 -0.01,-0.379C0.002,-0.408 0.016,-0.435 0.033,-0.46C0.05,-0.485 0.07,-0.507 0.092,-0.526C0.114,-0.544 0.138,-0.558 0.164,-0.568C0.189,-0.577 0.216,-0.581 0.245,-0.579ZM0.261,-0.315C0.255,-0.317 0.25,-0.322 0.246,-0.329C0.242,-0.336 0.239,-0.345 0.236,-0.354C0.233,-0.363 0.23,-0.372 0.229,-0.382C0.227,-0.392 0.226,-0.401 0.225,-0.408C0.224,-0.417 0.226,-0.425 0.23,-0.434C0.233,-0.442 0.238,-0.449 0.243,-0.456C0.247,-0.462 0.253,-0.467 0.259,-0.472C0.264,-0.477 0.269,-0.48 0.272,-0.482C0.269,-0.483 0.264,-0.484 0.257,-0.484C0.243,-0.483 0.228,-0.477 0.212,-0.467C0.196,-0.456 0.182,-0.443 0.169,-0.428C0.157,-0.411 0.147,-0.393 0.138,-0.373C0.129,-0.352 0.122,-0.331 0.117,-0.309C0.112,-0.287 0.108,-0.265 0.107,-0.244C0.106,-0.222 0.107,-0.202 0.11,-0.183C0.113,-0.158 0.121,-0.136 0.134,-0.12C0.146,-0.102 0.163,-0.093 0.186,-0.092C0.21,-0.091 0.232,-0.1 0.252,-0.12C0.272,-0.14 0.289,-0.165 0.302,-0.195C0.315,-0.225 0.325,-0.257 0.33,-0.292C0.335,-0.327 0.336,-0.358 0.331,-0.386L0.331,-0.391C0.326,-0.391 0.32,-0.389 0.315,-0.385C0.31,-0.38 0.305,-0.375 0.3,-0.369C0.295,-0.363 0.292,-0.357 0.289,-0.35C0.286,-0.343 0.285,-0.337 0.285,-0.332L0.261,-0.315Z" style="fill-rule:nonzero;"/>
            </g>
            <g transform="matrix(144,0,0,144,414.653,300.379)">
                <path d="M0.764,-0.196C0.757,-0.179 0.747,-0.158 0.734,-0.133C0.721,-0.108 0.707,-0.084 0.69,-0.061C0.673,-0.038 0.655,-0.018 0.634,-0.002C0.613,0.015 0.592,0.023 0.569,0.023C0.555,0.023 0.541,0.021 0.527,0.016C0.512,0.011 0.499,0.003 0.488,-0.008C0.476,-0.019 0.466,-0.033 0.458,-0.05C0.449,-0.067 0.444,-0.087 0.441,-0.11C0.439,-0.13 0.439,-0.15 0.44,-0.169C0.44,-0.188 0.443,-0.209 0.446,-0.23C0.448,-0.251 0.453,-0.275 0.458,-0.3C0.463,-0.325 0.47,-0.353 0.477,-0.384C0.48,-0.397 0.483,-0.41 0.485,-0.422C0.486,-0.434 0.486,-0.444 0.485,-0.451C0.485,-0.45 0.482,-0.446 0.477,-0.439C0.472,-0.432 0.463,-0.422 0.451,-0.409C0.43,-0.386 0.412,-0.364 0.396,-0.341C0.379,-0.318 0.364,-0.293 0.349,-0.265C0.346,-0.253 0.343,-0.241 0.341,-0.229C0.338,-0.217 0.336,-0.204 0.334,-0.191L0.334,-0.193C0.329,-0.162 0.326,-0.131 0.325,-0.101C0.324,-0.07 0.325,-0.038 0.328,-0.005C0.329,0 0.326,0.004 0.321,0.005C0.316,0.006 0.309,0.006 0.301,0.005C0.292,0.004 0.283,0.001 0.273,-0.003C0.262,-0.007 0.253,-0.012 0.244,-0.017C0.235,-0.022 0.227,-0.028 0.22,-0.034C0.213,-0.04 0.209,-0.046 0.208,-0.052C0.201,-0.108 0.201,-0.163 0.208,-0.216C0.215,-0.269 0.223,-0.321 0.234,-0.374C0.237,-0.391 0.24,-0.407 0.243,-0.42C0.246,-0.433 0.248,-0.442 0.25,-0.446C0.243,-0.442 0.229,-0.43 0.209,-0.409C0.188,-0.386 0.17,-0.363 0.154,-0.34C0.138,-0.317 0.122,-0.291 0.106,-0.263C0.097,-0.222 0.09,-0.179 0.086,-0.136C0.082,-0.093 0.082,-0.049 0.085,-0.005C0.085,0.002 0.079,0.006 0.068,0.005C0.056,0.004 0.043,0.001 0.029,-0.005C0.014,-0.01 0.001,-0.017 -0.012,-0.026C-0.025,-0.035 -0.032,-0.043 -0.034,-0.052C-0.037,-0.082 -0.039,-0.111 -0.038,-0.14C-0.037,-0.168 -0.035,-0.196 -0.033,-0.224C-0.029,-0.251 -0.026,-0.279 -0.021,-0.306C-0.016,-0.333 -0.011,-0.36 -0.006,-0.387C-0.001,-0.419 0.005,-0.45 0.01,-0.481C0.015,-0.511 0.02,-0.54 0.023,-0.568C0.03,-0.572 0.039,-0.572 0.052,-0.569C0.065,-0.565 0.078,-0.559 0.091,-0.551C0.104,-0.543 0.117,-0.533 0.129,-0.522C0.141,-0.51 0.15,-0.498 0.156,-0.485C0.177,-0.509 0.199,-0.529 0.224,-0.546C0.248,-0.563 0.274,-0.572 0.302,-0.574C0.309,-0.574 0.318,-0.571 0.328,-0.566C0.337,-0.561 0.347,-0.554 0.356,-0.546C0.365,-0.537 0.373,-0.528 0.38,-0.517C0.387,-0.506 0.393,-0.496 0.397,-0.485C0.418,-0.509 0.44,-0.529 0.465,-0.546C0.489,-0.563 0.515,-0.572 0.544,-0.574C0.553,-0.574 0.563,-0.57 0.576,-0.562C0.588,-0.553 0.599,-0.543 0.61,-0.531C0.62,-0.518 0.628,-0.505 0.635,-0.491C0.642,-0.477 0.644,-0.465 0.641,-0.454L0.641,-0.455C0.635,-0.418 0.629,-0.386 0.622,-0.358C0.615,-0.33 0.609,-0.305 0.604,-0.282C0.599,-0.263 0.595,-0.246 0.592,-0.23C0.588,-0.214 0.585,-0.198 0.583,-0.183C0.581,-0.168 0.58,-0.152 0.579,-0.136C0.578,-0.12 0.579,-0.103 0.58,-0.085C0.58,-0.088 0.581,-0.09 0.583,-0.092C0.601,-0.102 0.62,-0.119 0.642,-0.143C0.663,-0.167 0.682,-0.2 0.701,-0.241C0.706,-0.252 0.711,-0.264 0.716,-0.277C0.721,-0.289 0.725,-0.302 0.73,-0.315L0.739,-0.337C0.744,-0.346 0.75,-0.35 0.759,-0.351C0.768,-0.352 0.776,-0.349 0.784,-0.345C0.792,-0.339 0.798,-0.333 0.802,-0.324C0.806,-0.315 0.806,-0.304 0.802,-0.293C0.796,-0.277 0.79,-0.261 0.783,-0.245C0.776,-0.229 0.77,-0.213 0.764,-0.197L0.764,-0.196Z" style="fill-rule:nonzero;"/>
            </g>
            <g transform="matrix(144,0,0,144,523.085,300.379)">
                <path d="M0.399,-0.403C0.399,-0.399 0.397,-0.396 0.394,-0.393C0.39,-0.39 0.385,-0.389 0.38,-0.388C0.374,-0.387 0.368,-0.386 0.361,-0.387C0.354,-0.388 0.348,-0.389 0.343,-0.391C0.354,-0.385 0.365,-0.378 0.376,-0.37C0.387,-0.361 0.397,-0.352 0.406,-0.343C0.414,-0.334 0.42,-0.324 0.426,-0.314C0.431,-0.303 0.433,-0.293 0.432,-0.284C0.431,-0.279 0.429,-0.274 0.428,-0.269C0.427,-0.263 0.425,-0.257 0.424,-0.251C0.421,-0.238 0.419,-0.225 0.416,-0.21C0.413,-0.195 0.41,-0.181 0.408,-0.167C0.405,-0.153 0.404,-0.14 0.403,-0.128C0.402,-0.115 0.402,-0.105 0.403,-0.096C0.404,-0.095 0.403,-0.093 0.401,-0.091L0.408,-0.091C0.425,-0.098 0.441,-0.109 0.455,-0.124C0.469,-0.139 0.482,-0.157 0.493,-0.177C0.504,-0.196 0.515,-0.217 0.524,-0.24C0.533,-0.262 0.541,-0.283 0.549,-0.304C0.554,-0.314 0.558,-0.323 0.56,-0.331C0.562,-0.334 0.567,-0.335 0.575,-0.334C0.582,-0.332 0.59,-0.329 0.598,-0.324C0.606,-0.319 0.613,-0.314 0.619,-0.308C0.625,-0.301 0.627,-0.296 0.625,-0.291L0.609,-0.251L0.609,-0.25C0.594,-0.211 0.577,-0.172 0.558,-0.134C0.539,-0.095 0.516,-0.061 0.488,-0.03C0.483,-0.025 0.478,-0.019 0.471,-0.013C0.464,-0.006 0.456,-0 0.447,0.006C0.438,0.011 0.427,0.016 0.416,0.02C0.405,0.023 0.392,0.025 0.378,0.024C0.345,0.021 0.319,0.01 0.3,-0.01C0.281,-0.029 0.267,-0.054 0.26,-0.084C0.24,-0.056 0.218,-0.032 0.194,-0.012C0.169,0.008 0.143,0.018 0.116,0.019C0.09,0.016 0.068,0.009 0.049,-0.003C0.029,-0.014 0.014,-0.028 0.001,-0.044C-0.012,-0.06 -0.022,-0.077 -0.029,-0.096C-0.035,-0.114 -0.04,-0.131 -0.043,-0.147C-0.045,-0.162 -0.046,-0.174 -0.046,-0.183C-0.047,-0.208 -0.045,-0.235 -0.039,-0.264C-0.033,-0.293 -0.024,-0.323 -0.013,-0.352C-0.002,-0.381 0.013,-0.41 0.03,-0.437C0.047,-0.464 0.067,-0.489 0.088,-0.51C0.109,-0.531 0.133,-0.548 0.159,-0.561C0.184,-0.574 0.212,-0.58 0.241,-0.58C0.25,-0.58 0.258,-0.579 0.267,-0.578C0.276,-0.577 0.285,-0.575 0.295,-0.572C0.312,-0.567 0.327,-0.558 0.34,-0.547C0.352,-0.535 0.362,-0.521 0.37,-0.506C0.378,-0.49 0.384,-0.473 0.389,-0.456C0.394,-0.438 0.397,-0.42 0.399,-0.403ZM0.282,-0.403C0.287,-0.406 0.295,-0.407 0.305,-0.405C0.314,-0.403 0.325,-0.399 0.336,-0.394C0.331,-0.397 0.329,-0.401 0.329,-0.405C0.329,-0.407 0.329,-0.409 0.328,-0.412C0.327,-0.415 0.326,-0.417 0.325,-0.42C0.324,-0.427 0.322,-0.434 0.319,-0.441C0.316,-0.448 0.313,-0.455 0.309,-0.462C0.305,-0.468 0.3,-0.473 0.295,-0.477C0.289,-0.481 0.282,-0.483 0.273,-0.484C0.248,-0.485 0.226,-0.476 0.206,-0.458C0.185,-0.439 0.168,-0.416 0.153,-0.388C0.138,-0.36 0.126,-0.33 0.117,-0.298C0.108,-0.266 0.102,-0.237 0.099,-0.211C0.098,-0.204 0.097,-0.195 0.098,-0.184C0.098,-0.173 0.099,-0.162 0.101,-0.151C0.103,-0.136 0.108,-0.123 0.116,-0.113C0.124,-0.103 0.138,-0.101 0.157,-0.106C0.166,-0.109 0.176,-0.116 0.187,-0.129C0.198,-0.142 0.21,-0.157 0.221,-0.174C0.232,-0.191 0.243,-0.209 0.254,-0.228C0.264,-0.247 0.272,-0.264 0.279,-0.279C0.282,-0.3 0.285,-0.32 0.288,-0.339C0.29,-0.358 0.29,-0.374 0.289,-0.387L0.282,-0.403Z" style="fill-rule:nonzero;"/>
            </g>
            <g transform="matrix(144,0,0,144,605.741,300.379)">
                <path d="M-0.011,-0.528C-0.022,-0.524 -0.032,-0.524 -0.041,-0.528C-0.05,-0.532 -0.056,-0.538 -0.061,-0.546C-0.065,-0.553 -0.067,-0.562 -0.066,-0.571C-0.065,-0.58 -0.059,-0.589 -0.05,-0.596C-0.008,-0.629 0.036,-0.658 0.082,-0.681C0.093,-0.724 0.102,-0.764 0.109,-0.801C0.116,-0.838 0.12,-0.872 0.123,-0.904C0.132,-0.909 0.144,-0.909 0.161,-0.904C0.177,-0.898 0.193,-0.889 0.208,-0.877C0.223,-0.865 0.237,-0.851 0.248,-0.836C0.259,-0.82 0.264,-0.805 0.263,-0.79C0.262,-0.785 0.26,-0.778 0.259,-0.769C0.257,-0.76 0.254,-0.75 0.251,-0.739C0.292,-0.747 0.334,-0.751 0.378,-0.751C0.385,-0.751 0.394,-0.751 0.405,-0.751C0.416,-0.75 0.424,-0.75 0.431,-0.749C0.436,-0.739 0.438,-0.728 0.439,-0.717C0.439,-0.705 0.437,-0.694 0.434,-0.684C0.431,-0.673 0.426,-0.664 0.42,-0.657C0.414,-0.65 0.407,-0.646 0.399,-0.646C0.392,-0.647 0.384,-0.647 0.377,-0.648C0.37,-0.648 0.362,-0.648 0.355,-0.648C0.332,-0.648 0.309,-0.647 0.287,-0.644C0.265,-0.641 0.243,-0.637 0.22,-0.632L0.193,-0.541L0.173,-0.476C0.166,-0.454 0.159,-0.43 0.152,-0.403C0.144,-0.376 0.136,-0.347 0.129,-0.318C0.121,-0.288 0.114,-0.259 0.109,-0.232C0.103,-0.204 0.099,-0.178 0.096,-0.155C0.093,-0.132 0.093,-0.113 0.096,-0.099L0.096,-0.091L0.103,-0.091C0.12,-0.098 0.136,-0.109 0.15,-0.124C0.163,-0.138 0.175,-0.156 0.187,-0.175C0.198,-0.194 0.208,-0.214 0.217,-0.236C0.226,-0.257 0.234,-0.278 0.242,-0.299L0.241,-0.299C0.243,-0.305 0.245,-0.311 0.249,-0.317C0.252,-0.322 0.254,-0.328 0.256,-0.333C0.257,-0.337 0.262,-0.338 0.269,-0.336C0.276,-0.334 0.284,-0.331 0.292,-0.326C0.3,-0.321 0.307,-0.316 0.313,-0.31C0.318,-0.303 0.32,-0.298 0.319,-0.293L0.301,-0.248C0.286,-0.21 0.269,-0.171 0.25,-0.133C0.231,-0.093 0.208,-0.059 0.183,-0.03C0.178,-0.025 0.172,-0.019 0.165,-0.013C0.158,-0.006 0.149,-0 0.14,0.005C0.131,0.01 0.12,0.015 0.109,0.019C0.098,0.022 0.085,0.024 0.072,0.024C0.042,0.023 0.019,0.01 0.002,-0.013C-0.016,-0.036 -0.027,-0.065 -0.032,-0.099C-0.033,-0.106 -0.034,-0.114 -0.035,-0.123C-0.035,-0.131 -0.035,-0.138 -0.035,-0.145C-0.036,-0.214 -0.028,-0.281 -0.012,-0.348C0.004,-0.415 0.022,-0.48 0.041,-0.543L0.048,-0.563C0.039,-0.558 0.029,-0.552 0.02,-0.547C0.011,-0.541 0.001,-0.535 -0.008,-0.529L-0.011,-0.528Z" style="fill-rule:nonzero;"/>
            </g>
            <g transform="matrix(144,0,0,144,644.477,300.379)">
                <path d="M0.347,-0.394C0.326,-0.334 0.296,-0.284 0.255,-0.244C0.214,-0.204 0.165,-0.174 0.109,-0.155C0.113,-0.137 0.12,-0.12 0.13,-0.104C0.139,-0.088 0.152,-0.078 0.168,-0.075L0.166,-0.076C0.18,-0.073 0.195,-0.074 0.212,-0.079C0.228,-0.084 0.245,-0.094 0.262,-0.108C0.279,-0.121 0.296,-0.139 0.313,-0.161C0.33,-0.183 0.345,-0.209 0.36,-0.239C0.367,-0.255 0.374,-0.272 0.381,-0.289C0.387,-0.306 0.393,-0.322 0.398,-0.337C0.403,-0.346 0.409,-0.35 0.419,-0.351C0.428,-0.352 0.436,-0.349 0.444,-0.345C0.451,-0.339 0.457,-0.333 0.462,-0.324C0.466,-0.315 0.466,-0.304 0.462,-0.293L0.449,-0.257C0.437,-0.227 0.422,-0.194 0.404,-0.158C0.386,-0.121 0.363,-0.086 0.335,-0.052C0.318,-0.033 0.301,-0.019 0.283,-0.009C0.265,0.002 0.248,0.01 0.231,0.015C0.214,0.02 0.199,0.023 0.186,0.024C0.172,0.025 0.161,0.025 0.153,0.025C0.101,0.025 0.058,0.01 0.026,-0.02C-0.008,-0.05 -0.029,-0.091 -0.039,-0.143C-0.048,-0.188 -0.048,-0.233 -0.039,-0.276C-0.029,-0.319 -0.012,-0.366 0.013,-0.417C0.022,-0.434 0.034,-0.452 0.05,-0.471C0.066,-0.49 0.085,-0.507 0.106,-0.523C0.127,-0.539 0.149,-0.552 0.174,-0.562C0.199,-0.572 0.224,-0.577 0.251,-0.576C0.279,-0.575 0.303,-0.566 0.323,-0.549C0.342,-0.531 0.354,-0.507 0.359,-0.477C0.361,-0.464 0.361,-0.45 0.36,-0.437C0.358,-0.423 0.354,-0.408 0.347,-0.393L0.347,-0.394ZM0.269,-0.476C0.247,-0.471 0.227,-0.461 0.209,-0.444C0.191,-0.427 0.175,-0.408 0.162,-0.385C0.148,-0.362 0.137,-0.338 0.128,-0.313C0.119,-0.287 0.113,-0.263 0.109,-0.24C0.15,-0.259 0.185,-0.286 0.215,-0.319C0.245,-0.352 0.267,-0.391 0.281,-0.437L0.281,-0.436C0.283,-0.441 0.284,-0.447 0.285,-0.452C0.285,-0.457 0.285,-0.462 0.284,-0.466C0.282,-0.475 0.277,-0.479 0.269,-0.476Z" style="fill-rule:nonzero;"/>
            </g>
        </g>
    </g>
</svg>
